PathFileType	4	(X/Y/Z)	C:/Users/opensim2020/Desktop/walking_exp_matlab/subject03_walking04_straight_01.trc																																																																																																																																																							
DataRate	CameraRate	NumFrames	NumMarkers	Units	OrigDataRate	OrigDataStartFrame	OrigNumFrames																																																																																																																																																			
100	100	7	51	mm	100	967	265																																																																																																																																																			
Frame#	Time	LFHD			RFHD			LBHD			RBHD			C7			T10			CLAV			STRN			RBAK			LSHO			LUPA			LELB			LFRM			LWRA			LWRB			LFIN			RSHO			RUPA			RELB			RFRM			RWRA			RWRB			RFIN			LASI			RASI			LPSI			RPSI			LTHI			LKNE			LTIB			LANK			LHEE			LTOE			RTHI			RKNE			RTIB			RANK			RHEE			RTOE			*39			*40			*41			*42			*43			*44			*45			*46			*47			*48			*49			*50		
		X1	Y1	Z1	X2	Y2	Z2	X3	Y3	Z3	X4	Y4	Z4	X5	Y5	Z5	X6	Y6	Z6	X7	Y7	Z7	X8	Y8	Z8	X9	Y9	Z9	X10	Y10	Z10	X11	Y11	Z11	X12	Y12	Z12	X13	Y13	Z13	X14	Y14	Z14	X15	Y15	Z15	X16	Y16	Z16	X17	Y17	Z17	X18	Y18	Z18	X19	Y19	Z19	X20	Y20	Z20	X21	Y21	Z21	X22	Y22	Z22	X23	Y23	Z23	X24	Y24	Z24	X25	Y25	Z25	X26	Y26	Z26	X27	Y27	Z27	X28	Y28	Z28	X29	Y29	Z29	X30	Y30	Z30	X31	Y31	Z31	X32	Y32	Z32	X33	Y33	Z33	X34	Y34	Z34	X35	Y35	Z35	X36	Y36	Z36	X37	Y37	Z37	X38	Y38	Z38	X39	Y39	Z39	X40	Y40	Z40	X41	Y41	Z41	X42	Y42	Z42	X43	Y43	Z43	X44	Y44	Z44	X45	Y45	Z45	X46	Y46	Z46	X47	Y47	Z47	X48	Y48	Z48	X49	Y49	Z49	X50	Y50	Z50	X51	Y51	Z51
																																																																																																																																																										
232	2.31	806.94073	1596.1626	-1227.58765	762.12225	1594.35229	-1101.57043	684.26611	1554.81885	-1268.01257	645.02985	1552.74915	-1142.92358	631.90411	1394.73279	-1216.99072	590.76624	1081.12952	-1216.47485	753.09766	1317.63208	-1197.21533	793.11548	1151.55701	-1203.98389	562.54858	1217.89661	-1132.78638	729.90942	1359.80139	-1355.56079	772.76459	1180.44519	-1440.18054	824.45746	1071.03259	-1457.84399	912.8067	978.74902	-1443.17639	987.72473	894.4306	-1398.0061	976.25372	884.57574	-1451.07581	1038.85278	833.44257	-1432.82239	679.14258	1338.57056	-1045.87158	648.11981	1117.15125	-978.66644	650.55145	1003.86493	-964.81793	652.49725	866.73615	-962.5744	678.18219	768.83484	-994.34351	639.99915	767.20313	-956.01996	655.60834	693.94751	-963.59503	758.14288	918.74536	-1329.43945	755.55206	914.26263	-1090.97388	595.73016	940.58008	-1278.03784	594.39685	939.00348	-1129.25439	659.09052	625.2691	-1367.96948	620.4574	449.34558	-1333.45874	512.56	280.85403	-1338.5365	424.55188	87.81966	-1300.57739	373.95193	63.27671	-1266.45667	564.24109	28.13117	-1273.15967	753.92651	618.646	-1049.58313	834.57043	457.60364	-1089.63452	858.3266	275.00299	-1088.0448	925.59772	67.37342	-1131.66907	899.25604	30.56887	-1190.79456	1072.77881	58.63039	-1134.15588	712.13745	1656.37952	-1203.48071	NaN	NaN	NaN	NaN	NaN	NaN	NaN	NaN	NaN	NaN	NaN	NaN	NaN	NaN	NaN	NaN	NaN	NaN	NaN	NaN	NaN	NaN	NaN	NaN	NaN	NaN	NaN	NaN	NaN	NaN	NaN	NaN	NaN
233	2.32	817.43463	1596.05005	-1225.8501	772.35291	1594.1958	-1099.95593	694.88763	1554.65405	-1266.61963	655.44775	1552.61255	-1141.60876	642.46509	1394.40234	-1215.2323	601.83386	1080.75073	-1215.16138	763.78625	1317.42578	-1195.80859	804.16937	1151.43896	-1202.83264	573.55487	1217.36548	-1131.02649	739.94452	1359.54773	-1354.10339	781.8158	1179.94299	-1438.88281	832.90289	1070.2179	-1456.31323	921.92377	978.92767	-1441.58948	997.7113	895.74738	-1396.05444	986.16437	885.25421	-1448.98511	1049.34644	835.08179	-1430.50989	690.03644	1338.06104	-1044.24609	658.65668	1116.65405	-977.64923	660.44086	1003.35602	-964.01355	661.48975	866.14972	-962.16937	686.901	768.09149	-993.85199	648.349	766.68567	-955.71521	663.42456	693.28107	-963.69739	768.87299	918.26508	-1328.45483	766.74261	914.23987	-1089.83936	606.60187	940.23914	-1276.49768	605.44928	939.24902	-1127.79028	668.77814	625.04199	-1367.19067	629.20752	449.13989	-1333.42603	518.24646	282.2973	-1338.64624	426.4274	91.1328	-1300.93799	375.3497	67.64676	-1266.85034	564.56134	28.08018	-1273.13965	764.93176	618.995	-1048.94238	844.62604	457.25314	-1089.22266	865.9397	273.88419	-1087.81189	930.02625	65.5417	-1132.06445	901.88068	29.76303	-1190.82178	1076.72302	54.43023	-1136.42322	722.62646	1656.23987	-1202.00061	NaN	NaN	NaN	NaN	NaN	NaN	NaN	NaN	NaN	NaN	NaN	NaN	NaN	NaN	NaN	NaN	NaN	NaN	NaN	NaN	NaN	NaN	NaN	NaN	NaN	NaN	NaN	NaN	NaN	NaN	NaN	NaN	NaN
234	2.33	828.12714	1596.21021	-1224.40222	782.68561	1594.28052	-1098.32751	705.54767	1554.72607	-1265.18188	665.84119	1552.61255	-1140.22498	653.07935	1394.3092	-1213.35852	613.06146	1080.57117	-1213.75024	774.51544	1317.37158	-1194.27917	815.3952	1151.56348	-1201.59277	584.6734	1216.91589	-1129.30896	750.03876	1359.63904	-1352.64819	790.76526	1179.5686	-1437.47717	841.29901	1069.73145	-1455.11328	930.61505	978.96814	-1440.03406	1007.12238	896.73022	-1394.10095	995.38794	885.61603	-1446.84705	1059.18811	836.37427	-1428.23499	701.13062	1337.91675	-1042.60303	669.50763	1116.33118	-976.56183	670.76886	1002.99615	-963.24078	670.9104	865.71405	-961.63544	694.68121	767.40137	-994.38177	657.06219	766.35797	-955.43341	671.50507	692.78345	-963.64893	779.82355	917.74451	-1327.13684	778.12311	914.45697	-1088.55408	617.70117	940.0658	-1275.16235	616.6366	939.69922	-1126.32922	678.92114	624.71881	-1366.38245	638.61157	449.00851	-1333.33948	524.4024	283.81305	-1338.76733	428.68167	94.73141	-1301.38293	377.19785	72.41376	-1267.35156	564.62976	27.81351	-1273.24585	776.18744	619.77814	-1048.35205	854.37421	457.08432	-1088.84631	872.80481	272.90353	-1087.92517	933.12628	63.88066	-1133.01758	903.05194	29.82254	-1192.28748	1079.02026	46.2409	-1138.77747	733.12006	1656.27454	-1200.40137	NaN	NaN	NaN	NaN	NaN	NaN	NaN	NaN	NaN	NaN	NaN	NaN	NaN	NaN	NaN	NaN	NaN	NaN	NaN	NaN	NaN	NaN	NaN	NaN	NaN	NaN	NaN	NaN	NaN	NaN	NaN	NaN	NaN
235	2.34	838.62286	1596.67285	-1222.41614	793.11548	1594.75134	-1096.65027	716.22845	1555.0708	-1263.64575	676.27612	1552.94202	-1138.78149	663.6745	1394.51538	-1211.41174	624.40704	1080.70996	-1212.42554	785.33435	1317.6449	-1192.74658	826.75977	1152.10828	-1200.33716	595.84467	1216.69763	-1127.50061	760.14276	1359.85767	-1351.09546	799.71051	1179.33069	-1436.13635	849.33514	1069.26782	-1453.76086	938.99146	978.93829	-1438.46143	1016.00403	897.45911	-1392.1394	1004.10431	885.81537	-1444.71765	1068.34192	837.26642	-1426.02271	712.32263	1337.96326	-1040.79126	680.62134	1116.1366	-975.32233	681.44952	1002.73468	-962.47974	680.66443	865.52283	-961.13721	703.81982	767.03351	-994.08429	666.16943	766.12518	-955.12244	679.9574	692.46741	-963.70343	791.27026	917.53204	-1325.95898	789.58392	914.91583	-1087.16028	628.88373	940.14545	-1273.80505	627.88757	940.38641	-1125.04382	689.58789	624.4231	-1365.3075	648.59277	448.66452	-1333.20166	531.16901	285.52649	-1338.78992	431.46997	98.74635	-1301.87756	379.43835	77.9556	-1267.82251	564.83881	27.675	-1273.28333	787.63849	621.36438	-1047.92432	863.35175	457.34067	-1088.4928	879.26953	272.47672	-1088.41504	936.19684	63.30293	-1133.39612	904.09058	30.59644	-1191.6665	1081.59106	39.43198	-1141.48511	743.66034	1656.67358	-1198.87366	NaN	NaN	NaN	NaN	NaN	NaN	NaN	NaN	NaN	NaN	NaN	NaN	NaN	NaN	NaN	NaN	NaN	NaN	NaN	NaN	NaN	NaN	NaN	NaN	NaN	NaN	NaN	NaN	NaN	NaN	NaN	NaN	NaN
236	2.35	849.30688	1597.68567	-1220.67554	803.61884	1595.72205	-1094.96802	726.99579	1555.84204	-1262.02161	686.9046	1553.67175	-1137.18408	674.22308	1395.15259	-1209.28638	635.75702	1081.35254	-1211.04529	796.09265	1318.37451	-1191.19739	838.01556	1153.06714	-1198.9198	606.93604	1216.91675	-1125.72986	770.28156	1360.47107	-1349.56458	808.29584	1179.29211	-1434.46509	857.1944	1068.8457	-1452.24902	946.9715	978.79596	-1436.76538	1024.27551	897.8399	-1390.15503	1012.34833	885.86865	-1442.6488	1076.75916	837.74408	-1423.77307	723.64392	1338.25989	-1038.8551	691.9906	1116.17688	-974.01721	692.38232	1002.71387	-961.54828	690.87524	865.44635	-960.5766	713.27216	766.79993	-993.79279	675.71704	766.12256	-954.71069	688.7923	692.33398	-963.69867	802.89941	917.487	-1324.55688	801.16571	915.81238	-1085.63623	640.31616	940.35321	-1272.74329	639.2146	941.39038	-1123.84082	700.84796	624.30951	-1364.50476	659.0351	447.7999	-1333.01123	538.59747	287.50436	-1338.82776	434.52417	103.37257	-1302.25793	382.22382	84.20451	-1268.20947	565.43292	27.67436	-1273.22412	799.00372	623.57758	-1047.40503	871.44562	458.07715	-1087.92383	885.97278	272.83533	-1088.13452	940.60773	63.4483	-1133.64111	906.26257	32.00822	-1191.11023	1085.49475	37.68015	-1142.21753	754.18683	1657.5177	-1197.27637	NaN	NaN	NaN	NaN	NaN	NaN	NaN	NaN	NaN	NaN	NaN	NaN	NaN	NaN	NaN	NaN	NaN	NaN	NaN	NaN	NaN	NaN	NaN	NaN	NaN	NaN	NaN	NaN	NaN	NaN	NaN	NaN	NaN
237	2.36	860.05182	1599.20691	-1218.92065	814.28326	1597.19592	-1093.18323	737.81342	1557.20117	-1260.30835	697.36896	1554.91296	-1135.62671	684.89209	1396.36719	-1207.13049	647.08337	1082.48401	-1209.59705	806.7511	1319.61182	-1189.56299	849.17603	1154.48108	-1197.40845	617.90314	1217.76794	-1123.80762	780.42676	1361.46973	-1348.03772	816.99286	1179.57556	-1432.94006	864.99091	1068.74414	-1450.71521	954.5932	978.62848	-1435.00732	1031.95581	897.98743	-1388.16418	1019.91626	885.72192	-1440.57922	1084.53735	838.06714	-1421.5979	734.94824	1338.92603	-1036.84778	703.65625	1116.56384	-972.66272	703.75195	1002.97345	-960.58905	701.35822	865.65485	-959.95416	723.49072	767.05615	-993.23907	685.64307	766.42657	-954.23267	698.21753	692.55554	-963.77008	814.65228	917.83313	-1323.14331	812.83319	917.33014	-1084.05444	651.89978	940.89984	-1271.72388	650.6499	943.10406	-1122.73608	712.77075	624.42365	-1363.474	671.091	448.37393	-1332.8656	546.7926	289.87897	-1338.69373	438.41238	108.64156	-1302.55933	385.73212	91.29217	-1268.31396	565.94818	27.577	-1273.10889	809.91943	626.23755	-1046.95471	879.45959	459.31097	-1086.99768	892.84454	273.85281	-1087.23816	943.38635	63.58203	-1133.86621	907.74908	32.88636	-1190.66626	1088.08374	35.86688	-1141.59912	764.76001	1658.90686	-1195.60669	NaN	NaN	NaN	NaN	NaN	NaN	NaN	NaN	NaN	NaN	NaN	NaN	NaN	NaN	NaN	NaN	NaN	NaN	NaN	NaN	NaN	NaN	NaN	NaN	NaN	NaN	NaN	NaN	NaN	NaN	NaN	NaN	NaN
238	2.37	870.83331	1601.03918	-1217.09534	825.04211	1599.05725	-1091.41968	748.66144	1559.04053	-1258.57813	708.09399	1556.70129	-1133.88	695.69867	1398.17249	-1204.98572	658.41705	1083.97363	-1208.3905	817.336	1321.36035	-1187.92786	860.34784	1156.37292	-1195.84045	628.8678	1219.20093	-1121.69849	790.6424	1362.92517	-1346.60327	825.30341	1180.09778	-1430.89893	872.50586	1068.92993	-1448.9884	961.8266	978.46405	-1433.1123	1039.02856	897.85022	-1386.14526	1026.81396	885.4043	-1438.51648	1091.61328	838.15424	-1419.51648	746.28192	1340.13892	-1034.86499	715.5274	1117.35278	-971.28174	715.31805	1003.68781	-959.49182	712.32922	866.29333	-959.29169	733.17957	767.68085	-993.30164	696.10193	767.13477	-953.73627	707.93292	693.19641	-963.71259	826.47797	918.5614	-1321.7179	824.45032	919.51709	-1082.3457	663.59692	941.85022	-1270.89771	661.99963	945.40204	-1121.90918	725.30481	624.88464	-1362.48059	683.83667	448.64359	-1332.81042	555.8371	292.72287	-1338.54028	443.13596	114.57912	-1302.49194	390.32794	99.27307	-1268.15686	566.4726	27.40692	-1272.95081	820.14874	628.86603	-1046.41675	887.55341	461.03809	-1085.82849	898.56848	274.91116	-1086.03088	943.96381	63.67797	-1134.20435	907.87793	32.87756	-1190.63708	1088.75	34.47708	-1142.11194	775.46802	1660.73035	-1193.81409	NaN	NaN	NaN	NaN	NaN	NaN	NaN	NaN	NaN	NaN	NaN	NaN	NaN	NaN	NaN	NaN	NaN	NaN	NaN	NaN	NaN	NaN	NaN	NaN	NaN	NaN	NaN	NaN	NaN	NaN	NaN	NaN	NaN
